<?xml version="1.0" standalone="no"?>
<!DOCTYPE svg PUBLIC "-//W3C//DTD SVG 20010904//EN"
 "http://www.w3.org/TR/2001/REC-SVG-20010904/DTD/svg10.dtd">
<svg version="1.0" xmlns="http://www.w3.org/2000/svg"
 width="176.000000pt" height="148.000000pt" viewBox="0 0 176.000000 148.000000"
 preserveAspectRatio="xMidYMid meet">
<metadata>
Created by potrace 1.16, written by Peter Selinger 2001-2019
</metadata>
<g transform="translate(0.000000,148.000000) scale(0.100000,-0.100000)"
fill="#000000" stroke="none">
<path d="M602 1149 c-13 -5 -55 -43 -95 -85 -40 -43 -111 -117 -159 -166 -93
-95 -112 -131 -106 -203 l3 -40 78 -3 c42 -2 77 -6 77 -10 -1 -4 -34 -43 -76
-87 -80 -85 -87 -100 -82 -161 l3 -39 417 -3 416 -2 43 37 c49 43 58 51 185
184 50 52 96 103 102 115 6 12 8 44 5 77 l-6 57 -63 0 c-35 0 -64 3 -64 7 0 3
28 37 63 73 89 97 87 93 87 164 0 99 4 96 -117 96 -99 0 -138 -9 -155 -34 -13
-18 -9 -26 9 -19 12 5 14 3 8 -8 -5 -9 -1 -8 11 3 15 13 37 17 92 16 40 -1 71
-5 70 -9 -2 -5 -28 -34 -58 -65 -30 -32 -48 -54 -40 -49 18 11 -25 -39 -101
-116 -74 -76 -121 -99 -203 -99 -36 0 -67 -4 -70 -9 -3 -5 28 -8 72 -7 105 4
155 34 300 187 63 66 118 119 123 119 5 0 9 -17 9 -37 0 -29 -9 -48 -36 -78
-65 -73 -268 -275 -277 -275 -5 0 -6 14 -2 30 4 17 2 30 -3 30 -5 0 -13 -15
-16 -32 l-6 -33 -100 -3 -100 -3 0 29 c0 16 5 44 12 62 9 26 9 35 0 38 -26 8
-8 34 104 148 63 66 133 140 155 166 l40 47 -263 0 c-145 -1 -273 -5 -286 -10z
m258 -17 c0 -9 -37 -51 -119 -136 -31 -32 -46 -53 -34 -47 25 13 78 65 131
129 l35 42 93 -1 c52 -1 94 -5 94 -9 0 -4 -33 -41 -72 -82 -40 -41 -98 -101
-128 -134 -30 -32 -68 -67 -85 -77 -20 -12 -23 -16 -8 -12 19 5 21 2 21 -30 0
-20 3 -39 6 -42 3 -4 6 8 6 25 0 29 2 31 19 20 15 -9 17 -17 10 -36 -5 -13 -7
-27 -4 -32 3 -5 -2 -16 -11 -24 -12 -13 -40 -16 -140 -16 -123 0 -125 0 -119
21 5 15 4 19 -4 15 -6 -4 -11 -14 -11 -22 0 -11 -9 -14 -32 -12 -23 2 -33 8
-33 20 0 9 -4 20 -8 24 -11 11 -8 24 6 24 6 0 24 7 40 14 16 9 27 11 27 4 0
-13 183 -5 187 9 2 6 -13 7 -44 2 -66 -11 -131 -11 -137 0 -6 10 34 53 78 83
13 10 35 32 47 50 19 28 14 25 -32 -17 -162 -147 -180 -158 -177 -107 2 27 19
52 35 52 5 0 22 14 39 32 l29 32 -29 -22 c-15 -12 -32 -20 -36 -17 -4 2 -18
-7 -31 -21 -20 -21 -24 -36 -24 -87 l0 -62 -75 0 -75 0 0 30 0 30 64 0 c53 0
65 3 67 18 2 14 -7 17 -57 17 -32 0 -59 4 -59 9 0 5 35 44 78 88 42 43 97 101
122 128 24 28 63 65 85 83 37 30 45 32 108 30 51 -2 66 -5 63 -15 -7 -18 -3
-17 30 12 28 24 64 34 64 17z m463 -349 c4 -3 -17 -32 -46 -62 -28 -31 -83
-92 -121 -135 -39 -43 -84 -85 -102 -92 -48 -20 -739 -20 -727 0 4 8 32 39 61
70 l52 55 304 1 c244 0 309 3 332 15 16 8 60 46 99 85 60 61 74 70 106 70 19
0 39 -3 42 -7z m57 -52 c0 -41 -214 -272 -265 -285 -26 -7 -35 -15 -37 -35
l-3 -26 -385 -3 c-212 -1 -390 0 -396 2 -7 2 -9 16 -7 30 l5 26 372 0 c433 0
411 -5 509 107 121 139 190 213 198 213 5 0 9 -13 9 -29z"/>
</g>
</svg>
