<?xml version="1.0" standalone="no"?>
<!DOCTYPE svg PUBLIC "-//W3C//DTD SVG 20010904//EN"
 "http://www.w3.org/TR/2001/REC-SVG-20010904/DTD/svg10.dtd">
<svg version="1.0" xmlns="http://www.w3.org/2000/svg"
 width="232.000000pt" height="124.000000pt" viewBox="0 0 232.000000 124.000000"
 preserveAspectRatio="xMidYMid meet">
<metadata>
Created by potrace 1.16, written by Peter Selinger 2001-2019
</metadata>
<g transform="translate(0.000000,124.000000) scale(0.100000,-0.100000)"
fill="#000000" stroke="none">
<path d="M290 773 c-36 -7 -77 -40 -111 -86 -25 -35 -29 -49 -29 -109 0 -56 5
-78 25 -112 62 -106 228 -126 316 -37 88 88 66 260 -41 320 -37 21 -117 33
-160 24z m94 -104 c27 -13 61 -73 51 -89 -4 -6 -10 -8 -15 -5 -4 3 -11 -2 -14
-11 -11 -30 -6 -53 17 -69 18 -13 19 -17 8 -25 -27 -16 -76 26 -83 70 -4 21
-6 22 -12 8 -10 -23 14 -71 42 -83 28 -13 28 -25 0 -25 -31 1 -74 41 -82 76
-6 25 -2 33 24 52 33 25 37 47 15 76 -8 11 -15 23 -15 28 0 12 35 10 64 -3z"/>
<path d="M600 695 c0 -35 0 -35 46 -35 l45 0 -3 -120 -3 -120 45 0 45 0 -3
120 -3 120 45 0 c46 0 46 0 46 35 l0 35 -130 0 -130 0 0 -35z"/>
<path d="M1300 575 l0 -155 40 0 c35 0 40 3 40 24 0 13 7 29 15 36 12 10 18 6
36 -24 19 -33 25 -36 65 -36 l45 0 -27 48 c-15 26 -33 53 -40 61 -10 11 -9 20
9 45 12 17 25 33 30 34 4 2 11 11 16 20 8 15 3 17 -37 17 -43 0 -50 -3 -77
-40 l-30 -40 -3 83 -3 82 -39 0 -40 0 0 -155z"/>
<path d="M1832 673 c2 -19 -2 -28 -12 -28 -17 0 -20 -6 -20 -40 0 -14 6 -25
14 -25 9 0 15 -20 18 -72 5 -59 10 -75 28 -90 27 -21 73 -24 89 -4 17 20 3 66
-20 66 -16 0 -19 8 -19 50 l0 50 45 0 45 0 0 -70 c0 -96 29 -125 108 -104 17
5 22 13 22 42 0 19 -3 32 -6 29 -4 -3 -15 -2 -25 4 -14 7 -19 21 -19 54 0 41
2 45 25 45 22 0 25 4 25 33 0 28 -4 33 -22 33 -18 -1 -24 5 -26 27 -3 24 -7
27 -42 27 -35 0 -39 -3 -42 -27 -3 -25 -7 -28 -43 -28 -36 0 -40 3 -43 28 -3
24 -7 27 -43 27 -37 0 -40 -2 -37 -27z"/>
<path d="M1133 642 c-22 -3 -23 -7 -23 -113 l0 -109 45 0 44 0 3 73 3 72 37 9
c32 8 36 13 34 37 -3 39 -11 44 -40 25 -30 -19 -36 -20 -36 -3 0 12 -23 15
-67 9z"/>
<path d="M893 630 c-25 -10 -27 -17 -13 -40 6 -10 26 -15 62 -15 42 0 53 -3
56 -18 3 -15 -2 -17 -37 -11 -80 13 -120 -21 -105 -88 9 -42 62 -67 101 -48
16 8 49 12 76 11 l47 -3 0 84 c-1 113 -14 131 -102 135 -34 1 -73 -2 -85 -7z"/>
<path d="M1598 624 c-36 -19 -48 -43 -48 -98 0 -83 69 -131 162 -113 36 7 48
14 48 28 0 25 -18 33 -74 34 -30 0 -51 5 -53 13 -4 9 16 12 76 12 81 0 81 0
81 26 0 36 -37 93 -67 105 -36 13 -94 10 -125 -7z"/>
</g>
</svg>
