<?xml version="1.0" standalone="no"?>
<!DOCTYPE svg PUBLIC "-//W3C//DTD SVG 20010904//EN"
 "http://www.w3.org/TR/2001/REC-SVG-20010904/DTD/svg10.dtd">
<svg version="1.0" xmlns="http://www.w3.org/2000/svg"
 width="176.000000pt" height="148.000000pt" viewBox="0 0 176.000000 148.000000"
 preserveAspectRatio="xMidYMid meet">
<metadata>
Created by potrace 1.16, written by Peter Selinger 2001-2019
</metadata>
<g transform="translate(0.000000,148.000000) scale(0.100000,-0.100000)"
fill="#000000" stroke="none">
<path d="M602 1003 c-227 -228 -264 -277 -277 -367 -12 -78 -1 -86 120 -86 58
0 105 -4 105 -8 0 -5 -10 -17 -21 -28 -12 -10 -39 -41 -60 -67 -34 -43 -39
-55 -39 -102 0 -39 4 -54 16 -59 9 -3 148 -3 310 0 l293 7 113 116 c119 122
276 292 290 313 4 7 8 41 8 74 0 74 0 74 -120 74 -49 0 -91 4 -94 8 -3 5 13
26 36 48 57 55 71 92 62 170 l-6 64 -172 0 -172 0 -23 -31 c-20 -27 -20 -29
-4 -21 22 12 323 21 323 10 0 -5 -4 -8 -8 -8 -5 0 -32 -28 -60 -62 -28 -35
-68 -82 -89 -104 -21 -23 -78 -87 -128 -143 -59 -66 -101 -105 -122 -112 -36
-11 -499 -6 -497 6 1 4 19 28 40 54 21 25 43 52 49 59 5 8 77 82 159 164 l148
151 70 -5 c56 -4 75 -2 89 10 11 9 19 20 19 24 0 5 -45 8 -101 8 l-100 0 -157
-157z m708 42 c0 -20 -25 -58 -69 -105 -20 -20 -52 -57 -71 -81 -19 -24 -75
-86 -124 -136 -64 -67 -97 -93 -114 -93 -15 0 -26 -7 -29 -20 -5 -19 -14 -20
-269 -20 l-264 0 0 30 0 30 270 0 270 0 45 41 c24 22 77 80 117 127 89 106
218 242 230 242 4 0 8 -7 8 -15z m89 -199 c-29 -31 -157 -174 -229 -256 -50
-58 -105 -120 -122 -138 l-31 -32 -252 0 c-138 0 -254 3 -258 6 -3 4 14 26 39
49 24 23 44 50 44 59 0 14 18 16 147 16 188 0 197 4 334 152 57 61 106 115
107 119 2 5 40 9 85 10 45 1 93 5 107 9 33 11 34 11 29 6z m21 -80 c0 -29 -13
-48 -87 -129 -49 -52 -121 -131 -161 -176 -49 -54 -84 -84 -105 -89 -22 -6
-33 -16 -37 -33 l-6 -24 -268 -3 c-178 -1 -273 1 -281 8 -9 7 -11 20 -6 38 l7
27 293 5 c276 5 293 6 303 24 9 17 49 64 105 124 7 7 29 34 50 59 21 26 62 72
91 103 30 30 61 65 69 78 22 31 33 27 33 -12z"/>
</g>
</svg>
